# xmcd
#
# Track frame offsets: 
#        150
#        26925
#        44619
#        79314
#        106232
#        119109
#        148168
#        168982
#        183441
#        196212
#        218193
#        238169
#
# Disc length: 3417 seconds
#
# Revision: 1
# Processed by: cddbd v1.5.2PL0 Copyright (c) Steve Scherf et al.
# Submitted via: ExactAudioCopy v0.95b4
#
DISCID=b80d570c
DTITLE=Christopher Dell - The World We Knew
DYEAR=2007
DGENRE=Jazz
TTITLE0=Don't Take To Me
TTITLE1=Danke Schoen
TTITLE2=A Swingin' Safari
TTITLE3=Strangers In The Night
TTITLE4=Afrikaan Beat II
TTITLE5=Wiedersehn
TTITLE6=It Makes No Difference
TTITLE7=Spanish Eyes
TTITLE8=Afrikaan Beat I
TTITLE9=Geh nicht vorbei (I Can't Help Remembering You)
TTITLE10=The World We Knew (Over And Over)
TTITLE11=Love After Midnight (90 Minuten nach Mitternacht)
EXTD=YEAR: 2007
EXTT0=
EXTT1=
EXTT2=
EXTT3=
EXTT4=
EXTT5=
EXTT6=
EXTT7=
EXTT8=
EXTT9=
EXTT10=
EXTT11=
PLAYORDER=
